<?xml version="1.0" encoding="UTF-8" standalone="no"?>
<svg
   height="14"
   width="14"
   version="1.1"
   id="svg1"
   sodipodi:docname="dash-symbolic.svg"
   inkscape:version="1.3.2 (091e20ef0f, 2023-11-25)"
   xmlns:inkscape="http://www.inkscape.org/namespaces/inkscape"
   xmlns:sodipodi="http://sodipodi.sourceforge.net/DTD/sodipodi-0.dtd"
   xmlns="http://www.w3.org/2000/svg"
   xmlns:svg="http://www.w3.org/2000/svg">
  <defs
     id="defs1" />
  <sodipodi:namedview
     id="namedview1"
     pagecolor="#ffffff"
     bordercolor="#000000"
     borderopacity="0.25"
     inkscape:showpageshadow="2"
     inkscape:pageopacity="0.0"
     inkscape:pagecheckerboard="0"
     inkscape:deskcolor="#d1d1d1"
     inkscape:zoom="59.571429"
     inkscape:cx="6.9916067"
     inkscape:cy="7"
     inkscape:window-width="1868"
     inkscape:window-height="1043"
     inkscape:window-x="0"
     inkscape:window-y="0"
     inkscape:window-maximized="1"
     inkscape:current-layer="svg1" />
  <g
     style="display:inline"
     id="g1">
    <path
       style="color:#000;clip-rule:nonzero;display:inline;overflow:visible;visibility:visible;opacity:1;isolation:auto;mix-blend-mode:normal;color-interpolation:sRGB;color-interpolation-filters:linearRGB;solid-color:#000;solid-opacity:1;fill:#bebebe;fill-opacity:1;fill-rule:nonzero;stroke:none;stroke-width:4;stroke-linecap:round;stroke-linejoin:miter;stroke-miterlimit:4;stroke-dasharray:none;stroke-dashoffset:0;stroke-opacity:1;marker:none;color-rendering:auto;image-rendering:auto;shape-rendering:auto;text-rendering:auto;enable-background:accumulate"
       d="M407 367h8c1.108 0 2 .892 2 2s-.892 2-2 2h-8c-1.108 0-2-.892-2-2s.892-2 2-2z"
       transform="translate(-404 -362)"
       id="path1" />
  </g>
  <path
     style="fill:#cecdc3;stroke-width:0.0167866"
     d="M 2.6606715,8.9623924 C 1.5959323,8.7736664 0.87108945,7.7698721 1.0314431,6.7061652 1.1597864,5.8547998 1.8179879,5.1839541 2.6682686,5.0378962 c 0.1423541,-0.024453 0.566217,-0.027105 4.3324907,-0.027105 4.4688717,0 4.2821537,-0.00322 4.5651877,0.078628 1.03192,0.2983953 1.646196,1.4168826 1.348921,2.4561444 -0.05574,0.1948545 -0.201957,0.4887711 -0.323211,0.6496883 -0.306695,0.4070141 -0.760361,0.6821772 -1.267117,0.7685477 -0.217102,0.037002 -8.454721,0.035665 -8.6638685,-0.00141 z"
     id="path2" />
</svg>
